<svg width="963" height="167" viewBox="0 0 963 167" fill="none" xmlns="http://www.w3.org/2000/svg">
<path fill-rule="evenodd" clip-rule="evenodd" d="M86.4032 15.361C47.0214 15.361 15.0961 47.2863 15.0961 86.6681C15.0961 116.203 33.0534 141.56 58.675 152.385C62.4738 153.99 64.2522 158.371 62.6472 162.17C61.0422 165.969 56.6615 167.747 52.8626 166.142C21.9078 153.063 0.161865 122.414 0.161865 86.6681C0.161865 39.0383 38.7734 0.426697 86.4032 0.426697C134.033 0.426697 172.645 39.0383 172.645 86.6681C172.645 122.414 150.899 153.063 119.944 166.142C116.145 167.747 111.764 165.969 110.159 162.17C108.554 158.371 110.333 153.99 114.131 152.385C139.753 141.56 157.71 116.203 157.71 86.6681C157.71 47.2863 125.785 15.361 86.4032 15.361Z" fill="url(#paint0_linear_1_39)"/>
<path fill-rule="evenodd" clip-rule="evenodd" d="M39.5495 57.9896C43.3038 56.283 47.7307 57.9431 49.4373 61.6975L64.5212 94.882L79.6051 61.6975C80.8167 59.0317 83.4747 57.3203 86.4029 57.3203C89.3311 57.3203 91.989 59.0317 93.2007 61.6975L108.285 94.882L123.369 61.6975C125.075 57.9431 129.502 56.283 133.256 57.9896C137.011 59.6961 138.671 64.123 136.964 67.8773L115.082 116.017C113.871 118.683 111.213 120.394 108.285 120.394C105.356 120.394 102.698 118.683 101.487 116.017L86.4029 82.8326L71.319 116.017C70.1073 118.683 67.4493 120.394 64.5212 120.394C61.593 120.394 58.935 118.683 57.7233 116.017L35.8416 67.8773C34.1351 64.123 35.7952 59.6961 39.5495 57.9896Z" fill="#1D2939"/>
<path d="M249.131 127.537C238.781 127.537 230.558 124.649 224.46 118.872C218.362 113.015 215.313 104.591 215.313 93.5989V73.8616C215.313 62.8697 218.362 54.4853 224.46 48.7086C230.558 42.8515 238.781 39.923 249.131 39.923C259.482 39.923 267.705 42.8515 273.803 48.7086C279.981 54.4853 283.07 62.8697 283.07 73.8616V93.5989C283.07 104.591 279.981 113.015 273.803 118.872C267.705 124.649 259.482 127.537 249.131 127.537ZM249.131 115.864C255.791 115.864 260.926 113.938 264.536 110.087C268.147 106.155 269.952 100.82 269.952 94.0803V73.3802C269.952 66.6406 268.147 61.3453 264.536 57.4941C260.926 53.5626 255.791 51.5969 249.131 51.5969C242.633 51.5969 237.538 53.5626 233.847 57.4941C230.156 61.3453 228.311 66.6406 228.311 73.3802V94.0803C228.311 100.82 230.156 106.155 233.847 110.087C237.538 113.938 242.633 115.864 249.131 115.864Z" fill="#1D2939"/>
<path d="M291.597 149.923V66.5203H303.752V75.0651H305.678C307.202 72.4174 309.489 70.0505 312.538 67.9645C315.667 65.8784 320.12 64.8354 325.897 64.8354C330.871 64.8354 335.404 66.0389 339.496 68.4459C343.668 70.8529 346.998 74.343 349.485 78.9163C352.053 83.4093 353.336 88.8652 353.336 95.2838V97.0891C353.336 103.508 352.093 109.004 349.605 113.577C347.118 118.07 343.789 121.52 339.616 123.927C335.444 126.334 330.871 127.537 325.897 127.537C322.045 127.537 318.796 127.056 316.148 126.093C313.501 125.131 311.374 123.927 309.77 122.483C308.165 120.958 306.881 119.394 305.919 117.789H303.993V149.923H291.597ZM322.286 116.706C327.742 116.706 332.195 114.981 335.645 111.531C339.095 108.081 340.82 103.147 340.82 96.728V95.6449C340.82 89.3065 339.055 84.4122 335.525 80.9622C332.075 77.5122 327.662 75.7872 322.286 75.7872C316.991 75.7872 312.578 77.5122 309.048 80.9622C305.598 84.4122 303.873 89.3065 303.873 95.6449V96.728C303.873 103.147 305.598 108.081 309.048 111.531C312.578 114.981 316.991 116.706 322.286 116.706Z" fill="#1D2939"/>
<path d="M388.674 127.537C382.656 127.537 377.401 126.294 372.908 123.807C368.415 121.239 364.885 117.669 362.317 113.096C359.83 108.442 358.587 103.066 358.587 96.9687V95.5245C358.587 89.3466 359.83 83.971 362.317 79.3977C364.805 74.7442 368.255 71.1738 372.667 68.6866C377.16 66.1191 382.336 64.8354 388.193 64.8354C393.889 64.8354 398.864 66.1191 403.116 68.6866C407.448 71.1738 410.818 74.6639 413.225 79.157C415.632 83.65 416.836 88.9053 416.836 94.9228V99.6164H371.223C371.384 104.832 373.109 109.004 376.398 112.133C379.768 115.182 383.94 116.706 388.915 116.706C393.568 116.706 397.058 115.663 399.385 113.577C401.792 111.491 403.637 109.084 404.921 106.356L415.151 111.651C414.028 113.898 412.383 116.265 410.216 118.752C408.13 121.239 405.362 123.325 401.912 125.01C398.462 126.695 394.05 127.537 388.674 127.537ZM371.344 90.1088H404.199C403.878 85.6157 402.273 82.1256 399.385 79.6384C396.497 77.0709 392.726 75.7872 388.072 75.7872C383.419 75.7872 379.608 77.0709 376.639 79.6384C373.751 82.1256 371.985 85.6157 371.344 90.1088Z" fill="#1D2939"/>
<path d="M424.536 125.853V66.5203H436.692V75.4261H438.617C439.74 73.0192 441.746 70.7726 444.635 68.6866C447.523 66.6005 451.815 65.5575 457.512 65.5575C462.005 65.5575 465.977 66.5604 469.427 68.5662C472.957 70.5721 475.725 73.4203 477.731 77.111C479.737 80.7215 480.739 85.0942 480.739 90.2291V125.853H468.343V91.1919C468.343 86.057 467.06 82.2861 464.492 79.8791C461.925 77.3919 458.395 76.1482 453.901 76.1482C448.767 76.1482 444.635 77.8331 441.505 81.2029C438.457 84.5727 436.932 89.4669 436.932 95.8856V125.853H424.536Z" fill="#1D2939"/>
<path d="M496.172 125.853L483.776 41.6079H496.774L506.883 117.067H508.809L521.807 41.6079H544.553L557.551 117.067H559.476L569.465 41.6079H582.463L570.067 125.853H547.321L534.082 49.3103H532.157L519.039 125.853H496.172Z" fill="#1D2939"/>
<path d="M614.47 127.537C608.453 127.537 603.198 126.294 598.705 123.807C594.211 121.239 590.681 117.669 588.114 113.096C585.627 108.442 584.383 103.066 584.383 96.9687V95.5245C584.383 89.3466 585.627 83.971 588.114 79.3977C590.601 74.7442 594.051 71.1738 598.464 68.6866C602.957 66.1191 608.132 64.8354 613.989 64.8354C619.685 64.8354 624.66 66.1191 628.912 68.6866C633.245 71.1738 636.615 74.6639 639.022 79.157C641.429 83.65 642.632 88.9053 642.632 94.9228V99.6164H597.02C597.18 104.832 598.905 109.004 602.195 112.133C605.564 115.182 609.737 116.706 614.711 116.706C619.365 116.706 622.855 115.663 625.181 113.577C627.588 111.491 629.434 109.084 630.718 106.356L640.947 111.651C639.824 113.898 638.179 116.265 636.013 118.752C633.927 121.239 631.159 123.325 627.709 125.01C624.259 126.695 619.846 127.537 614.47 127.537ZM597.14 90.1088H629.995C629.674 85.6157 628.07 82.1256 625.181 79.6384C622.293 77.0709 618.522 75.7872 613.869 75.7872C609.215 75.7872 605.404 77.0709 602.435 79.6384C599.547 82.1256 597.782 85.6157 597.14 90.1088Z" fill="#1D2939"/>
<path d="M684.632 127.537C678.855 127.537 674.403 126.494 671.273 124.408C668.225 122.322 665.938 119.996 664.413 117.428H662.488V125.853H650.333V41.6079H662.729V74.5837H664.654C665.617 72.979 666.901 71.4546 668.505 70.0104C670.11 68.486 672.236 67.2424 674.884 66.2796C677.532 65.3168 680.781 64.8354 684.632 64.8354C689.607 64.8354 694.18 66.0389 698.352 68.4459C702.524 70.8529 705.854 74.343 708.341 78.9163C710.828 83.4896 712.072 88.9454 712.072 95.2838V97.0891C712.072 103.508 710.788 109.004 708.221 113.577C705.733 118.07 702.404 121.52 698.232 123.927C694.14 126.334 689.607 127.537 684.632 127.537ZM681.022 116.706C686.397 116.706 690.81 114.981 694.26 111.531C697.79 108.081 699.556 103.147 699.556 96.728V95.6449C699.556 89.3065 697.831 84.4122 694.381 80.9622C690.93 77.5122 686.478 75.7872 681.022 75.7872C675.726 75.7872 671.314 77.5122 667.783 80.9622C664.333 84.4122 662.608 89.3065 662.608 95.6449V96.728C662.608 103.147 664.333 108.081 667.783 111.531C671.314 114.981 675.726 116.706 681.022 116.706Z" fill="#1D2939"/>
<path d="M720.211 125.853V66.5203H732.607V125.853H720.211ZM726.469 58.4569C724.062 58.4569 722.016 57.6947 720.331 56.1702C718.726 54.5656 717.924 52.5196 717.924 50.0324C717.924 47.5452 718.726 45.5394 720.331 44.0149C722.016 42.4103 724.062 41.6079 726.469 41.6079C728.956 41.6079 731.002 42.4103 732.607 44.0149C734.211 45.5394 735.014 47.5452 735.014 50.0324C735.014 52.5196 734.211 54.5656 732.607 56.1702C731.002 57.6947 728.956 58.4569 726.469 58.4569Z" fill="#1D2939"/>
<path d="M743.782 125.853V66.5203H755.937V75.4261H757.863C758.986 73.0192 760.992 70.7726 763.88 68.6866C766.769 66.6005 771.061 65.5575 776.758 65.5575C781.251 65.5575 785.222 66.5604 788.673 68.5662C792.203 70.5721 794.971 73.4203 796.977 77.111C798.982 80.7215 799.985 85.0942 799.985 90.2291V125.853H787.589V91.1919C787.589 86.057 786.306 82.2861 783.738 79.8791C781.171 77.3919 777.64 76.1482 773.147 76.1482C768.012 76.1482 763.88 77.8331 760.751 81.2029C757.703 84.5727 756.178 89.4669 756.178 95.8856V125.853H743.782Z" fill="#1D2939"/>
<path d="M829.018 127.537C824.765 127.537 820.954 126.815 817.585 125.371C814.295 123.927 811.647 121.801 809.642 118.993C807.716 116.185 806.753 112.775 806.753 108.763C806.753 104.671 807.716 101.301 809.642 98.6536C811.647 95.9257 814.335 93.8797 817.705 92.5158C821.155 91.1518 825.046 90.4698 829.379 90.4698H847.431V86.6187C847.431 83.1686 846.388 80.4006 844.302 78.3145C842.216 76.2285 839.007 75.1854 834.674 75.1854C830.422 75.1854 827.172 76.1884 824.926 78.1942C822.679 80.2 821.195 82.8076 820.473 86.0169L808.919 82.2861C809.882 79.0768 811.407 76.1884 813.493 73.6209C815.659 70.9732 818.507 68.847 822.038 67.2424C825.568 65.6377 829.82 64.8354 834.795 64.8354C842.497 64.8354 848.555 66.8011 852.967 70.7325C857.38 74.6639 859.587 80.2401 859.587 87.4611V111.892C859.587 114.299 860.71 115.503 862.956 115.503H868.011V125.853H858.744C855.936 125.853 853.649 125.131 851.884 123.686C850.119 122.242 849.237 120.276 849.237 117.789V117.428H847.431C846.789 118.632 845.827 120.036 844.543 121.64C843.259 123.245 841.374 124.649 838.886 125.853C836.399 126.976 833.11 127.537 829.018 127.537ZM830.823 117.308C835.797 117.308 839.809 115.904 842.858 113.096C845.907 110.207 847.431 106.276 847.431 101.301V100.098H830.101C826.811 100.098 824.164 100.82 822.158 102.264C820.152 103.628 819.149 105.674 819.149 108.402C819.149 111.13 820.192 113.296 822.278 114.901C824.364 116.505 827.213 117.308 830.823 117.308Z" fill="#1D2939"/>
<path d="M875.25 125.853V66.5203H887.405V73.5006H889.331C890.294 71.0133 891.818 69.2081 893.904 68.0848C896.07 66.8813 898.718 66.2796 901.847 66.2796H908.948V77.4721H901.366C897.354 77.4721 894.065 78.5954 891.497 80.8419C888.93 83.0082 887.646 86.378 887.646 90.9512V125.853H875.25Z" fill="#1D2939"/>
<path d="M937.588 127.537C930.046 127.537 923.788 125.853 918.814 122.483C913.839 119.113 910.79 114.018 909.667 107.198L921.221 104.43C921.862 107.72 922.946 110.328 924.47 112.253C925.995 114.179 927.88 115.543 930.126 116.345C932.453 117.147 934.94 117.548 937.588 117.548C941.52 117.548 944.528 116.786 946.614 115.262C948.781 113.737 949.864 111.772 949.864 109.365C949.864 106.958 948.861 105.193 946.855 104.069C944.849 102.946 941.881 102.023 937.949 101.301L933.857 100.579C929.846 99.8571 926.195 98.8141 922.906 97.4501C919.616 96.0862 917.008 94.2007 915.083 91.7937C913.157 89.3867 912.194 86.2977 912.194 82.5268C912.194 76.9105 914.28 72.5779 918.453 69.529C922.625 66.3999 928.161 64.8354 935.061 64.8354C941.72 64.8354 947.176 66.3598 951.428 69.4087C955.761 72.3773 958.569 76.4291 959.853 81.564L948.299 84.8134C947.577 81.2029 946.053 78.6756 943.726 77.2314C941.399 75.707 938.511 74.9448 935.061 74.9448C931.691 74.9448 929.043 75.5866 927.118 76.8703C925.192 78.0738 924.229 79.7988 924.229 82.0454C924.229 84.4524 925.152 86.2175 926.997 87.3408C928.923 88.464 931.49 89.3065 934.7 89.8681L938.912 90.5902C943.164 91.3123 947.056 92.3152 950.586 93.5989C954.116 94.8827 956.884 96.728 958.89 99.135C960.976 101.542 962.019 104.751 962.019 108.763C962.019 114.7 959.813 119.314 955.4 122.603C950.987 125.893 945.05 127.537 937.588 127.537Z" fill="#1D2939"/>
<defs>
<linearGradient id="paint0_linear_1_39" x1="0.156194" y1="166.729" x2="156.566" y2="3.66038" gradientUnits="userSpaceOnUse">
<stop stop-color="#7A5AF8"/>
<stop offset="1" stop-color="#F63D68"/>
</linearGradient>
</defs>
</svg>