<?xml version="1.0" encoding="UTF-8" standalone="no"?>
<!DOCTYPE svg PUBLIC "-//W3C//DTD SVG 1.1//EN" "http://www.w3.org/Graphics/SVG/1.1/DTD/svg11.dtd">
<svg width="100%" height="100%" viewBox="0 0 186 33" version="1.1" xmlns="http://www.w3.org/2000/svg" xmlns:xlink="http://www.w3.org/1999/xlink" xml:space="preserve" xmlns:serif="http://www.serif.com/" style="fill-rule:evenodd;clip-rule:evenodd;stroke-linejoin:round;stroke-miterlimit:2;">
    <g id="Mesa-de-trabajo1" serif:id="Mesa de trabajo1" transform="matrix(0.842392,0,0,0.734913,0,0)">
        <rect x="0" y="0" width="220.198" height="43.943" style="fill:none;"/>
        <g transform="matrix(1,0,0,1,0.0605188,0.209031)">
            <g transform="matrix(1.1871,0,0,1.36071,0.232157,-0.0093017)">
                <path d="M16.587,2.879C9.013,2.879 2.872,9.02 2.872,16.594C2.872,22.275 6.326,27.152 11.254,29.234C11.985,29.543 12.327,30.385 12.018,31.116C11.71,31.847 10.867,32.189 10.136,31.88C4.183,29.364 0,23.469 0,16.594C0,7.433 7.426,0.007 16.587,0.007C25.748,0.007 33.175,7.433 33.175,16.594C33.175,23.469 28.992,29.364 23.038,31.88C22.308,32.189 21.465,31.847 21.157,31.116C20.848,30.385 21.19,29.543 21.921,29.234C26.848,27.152 30.302,22.275 30.302,16.594C30.302,9.02 24.162,2.879 16.587,2.879Z" style="fill:url(#_Linear1);"/>
            </g>
            <g transform="matrix(1.1871,0,0,1.36071,0.232157,-0.0093017)">
                <path d="M7.576,11.078C8.298,10.75 9.149,11.069 9.477,11.791L12.379,18.174L15.28,11.791C15.513,11.279 16.024,10.95 16.587,10.95C17.151,10.95 17.662,11.279 17.895,11.791L20.796,18.174L23.697,11.791C24.025,11.069 24.877,10.75 25.599,11.078C26.321,11.407 26.64,12.258 26.312,12.98L22.103,22.239C21.87,22.752 21.359,23.081 20.796,23.081C20.233,23.081 19.722,22.752 19.488,22.239L16.587,15.857L13.686,22.239C13.453,22.752 12.942,23.081 12.379,23.081C11.815,23.081 11.304,22.752 11.071,22.239L6.863,12.98C6.534,12.258 6.854,11.407 7.576,11.078Z" style="fill:white;"/>
            </g>
            <g transform="matrix(1.1871,0,0,1.36071,0.232157,-0.0093017)">
                <path d="M47.886,24.455C45.895,24.455 44.313,23.899 43.141,22.788C41.968,21.662 41.381,20.042 41.381,17.927L41.381,14.131C41.381,12.017 41.968,10.404 43.141,9.293C44.313,8.167 45.895,7.604 47.886,7.604C49.877,7.604 51.458,8.167 52.631,9.293C53.819,10.404 54.413,12.017 54.413,14.131L54.413,17.927C54.413,20.042 53.819,21.662 52.631,22.788C51.458,23.899 49.877,24.455 47.886,24.455ZM47.886,22.21C49.167,22.21 50.154,21.839 50.849,21.099C51.543,20.342 51.89,19.316 51.89,18.02L51.89,14.039C51.89,12.742 51.543,11.724 50.849,10.983C50.154,10.227 49.167,9.849 47.886,9.849C46.636,9.849 45.656,10.227 44.946,10.983C44.236,11.724 43.881,12.742 43.881,14.039L43.881,18.02C43.881,19.316 44.236,20.342 44.946,21.099C45.656,21.839 46.636,22.21 47.886,22.21Z" style="fill:white;fill-rule:nonzero;"/>
            </g>
            <g transform="matrix(1.1871,0,0,1.36071,0.232157,-0.0093017)">
                <path d="M56.054,28.76L56.054,12.719L58.391,12.719L58.391,14.363L58.762,14.363C59.055,13.853 59.495,13.398 60.081,12.997C60.683,12.596 61.539,12.395 62.651,12.395C63.607,12.395 64.479,12.627 65.266,13.089C66.069,13.552 66.709,14.224 67.188,15.103C67.681,15.967 67.928,17.017 67.928,18.251L67.928,18.599C67.928,19.833 67.689,20.89 67.211,21.77C66.732,22.634 66.092,23.298 65.289,23.761C64.487,24.224 63.607,24.455 62.651,24.455C61.91,24.455 61.285,24.362 60.776,24.177C60.266,23.992 59.857,23.761 59.549,23.483C59.24,23.19 58.993,22.889 58.808,22.58L58.438,22.58L58.438,28.76L56.054,28.76ZM61.956,22.372C63.006,22.372 63.862,22.04 64.525,21.376C65.189,20.713 65.521,19.764 65.521,18.529L65.521,18.321C65.521,17.102 65.181,16.16 64.502,15.497C63.839,14.833 62.99,14.502 61.956,14.502C60.938,14.502 60.089,14.833 59.41,15.497C58.746,16.16 58.414,17.102 58.414,18.321L58.414,18.529C58.414,19.764 58.746,20.713 59.41,21.376C60.089,22.04 60.938,22.372 61.956,22.372Z" style="fill:white;fill-rule:nonzero;"/>
            </g>
            <g transform="matrix(1.1871,0,0,1.36071,0.232157,-0.0093017)">
                <path d="M74.725,24.455C73.568,24.455 72.557,24.216 71.693,23.737C70.828,23.244 70.149,22.557 69.656,21.677C69.177,20.782 68.938,19.748 68.938,18.576L68.938,18.298C68.938,17.11 69.177,16.076 69.656,15.196C70.134,14.301 70.798,13.614 71.646,13.136C72.51,12.642 73.506,12.395 74.632,12.395C75.728,12.395 76.685,12.642 77.503,13.136C78.336,13.614 78.984,14.285 79.447,15.15C79.91,16.014 80.141,17.025 80.141,18.182L80.141,19.085L71.369,19.085C71.399,20.088 71.731,20.89 72.364,21.492C73.012,22.078 73.814,22.372 74.771,22.372C75.666,22.372 76.338,22.171 76.785,21.77C77.248,21.369 77.603,20.906 77.85,20.381L79.817,21.4C79.601,21.832 79.285,22.287 78.868,22.765C78.467,23.244 77.935,23.645 77.271,23.969C76.608,24.293 75.759,24.455 74.725,24.455ZM71.392,17.256L77.711,17.256C77.649,16.392 77.341,15.721 76.785,15.242C76.23,14.748 75.504,14.502 74.609,14.502C73.714,14.502 72.981,14.748 72.41,15.242C71.855,15.721 71.515,16.392 71.392,17.256Z" style="fill:white;fill-rule:nonzero;"/>
            </g>
            <g transform="matrix(1.1871,0,0,1.36071,0.232157,-0.0093017)">
                <path d="M81.623,24.131L81.623,12.719L83.96,12.719L83.96,14.432L84.331,14.432C84.547,13.969 84.933,13.537 85.488,13.136C86.044,12.735 86.869,12.534 87.965,12.534C88.829,12.534 89.593,12.727 90.257,13.113C90.936,13.498 91.468,14.046 91.854,14.756C92.24,15.451 92.432,16.292 92.432,17.279L92.432,24.131L90.048,24.131L90.048,17.464C90.048,16.477 89.801,15.752 89.308,15.289C88.814,14.81 88.135,14.571 87.271,14.571C86.283,14.571 85.488,14.895 84.886,15.543C84.3,16.191 84.007,17.133 84.007,18.367L84.007,24.131L81.623,24.131Z" style="fill:white;fill-rule:nonzero;"/>
            </g>
            <g transform="matrix(1.1871,0,0,1.36071,0.232157,-0.0093017)">
                <path d="M95.401,24.131L93.016,7.928L95.516,7.928L97.461,22.441L97.831,22.441L100.331,7.928L104.706,7.928L107.206,22.441L107.576,22.441L109.498,7.928L111.998,7.928L109.613,24.131L105.238,24.131L102.692,9.409L102.322,9.409L99.799,24.131L95.401,24.131Z" style="fill:white;fill-rule:nonzero;"/>
            </g>
            <g transform="matrix(1.1871,0,0,1.36071,0.232157,-0.0093017)">
                <path d="M118.154,24.455C116.996,24.455 115.986,24.216 115.121,23.737C114.257,23.244 113.578,22.557 113.084,21.677C112.606,20.782 112.367,19.748 112.367,18.576L112.367,18.298C112.367,17.11 112.606,16.076 113.084,15.196C113.563,14.301 114.226,13.614 115.075,13.136C115.939,12.642 116.935,12.395 118.061,12.395C119.157,12.395 120.114,12.642 120.931,13.136C121.765,13.614 122.413,14.285 122.876,15.15C123.339,16.014 123.57,17.025 123.57,18.182L123.57,19.085L114.797,19.085C114.828,20.088 115.16,20.89 115.793,21.492C116.441,22.078 117.243,22.372 118.2,22.372C119.095,22.372 119.766,22.171 120.214,21.77C120.677,21.369 121.032,20.906 121.279,20.381L123.246,21.4C123.03,21.832 122.714,22.287 122.297,22.765C121.896,23.244 121.364,23.645 120.7,23.969C120.036,24.293 119.188,24.455 118.154,24.455ZM114.82,17.256L121.14,17.256C121.078,16.392 120.769,15.721 120.214,15.242C119.658,14.748 118.933,14.502 118.038,14.502C117.143,14.502 116.41,14.748 115.839,15.242C115.283,15.721 114.944,16.392 114.82,17.256Z" style="fill:white;fill-rule:nonzero;"/>
            </g>
            <g transform="matrix(1.1871,0,0,1.36071,0.232157,-0.0093017)">
                <path d="M131.648,24.455C130.537,24.455 129.681,24.254 129.079,23.853C128.493,23.452 128.053,23.004 127.76,22.511L127.389,22.511L127.389,24.131L125.051,24.131L125.051,7.928L127.436,7.928L127.436,14.27L127.806,14.27C127.991,13.961 128.238,13.668 128.547,13.39C128.855,13.097 129.264,12.858 129.773,12.673C130.283,12.488 130.908,12.395 131.648,12.395C132.605,12.395 133.485,12.627 134.287,13.089C135.09,13.552 135.73,14.224 136.208,15.103C136.687,15.983 136.926,17.032 136.926,18.251L136.926,18.599C136.926,19.833 136.679,20.89 136.185,21.77C135.707,22.634 135.067,23.298 134.264,23.761C133.477,24.224 132.605,24.455 131.648,24.455ZM130.954,22.372C131.988,22.372 132.837,22.04 133.5,21.376C134.179,20.713 134.519,19.764 134.519,18.529L134.519,18.321C134.519,17.102 134.187,16.16 133.523,15.497C132.86,14.833 132.003,14.502 130.954,14.502C129.935,14.502 129.087,14.833 128.408,15.497C127.744,16.16 127.412,17.102 127.412,18.321L127.412,18.529C127.412,19.764 127.744,20.713 128.408,21.376C129.087,22.04 129.935,22.372 130.954,22.372Z" style="fill:white;fill-rule:nonzero;"/>
            </g>
            <g transform="matrix(1.1871,0,0,1.36071,0.232157,-0.0093017)">
                <path d="M138.491,24.131L138.491,12.719L140.876,12.719L140.876,24.131L138.491,24.131ZM139.695,11.168C139.232,11.168 138.839,11.022 138.515,10.728C138.206,10.42 138.052,10.026 138.052,9.548C138.052,9.07 138.206,8.684 138.515,8.391C138.839,8.082 139.232,7.928 139.695,7.928C140.173,7.928 140.567,8.082 140.876,8.391C141.184,8.684 141.339,9.07 141.339,9.548C141.339,10.026 141.184,10.42 140.876,10.728C140.567,11.022 140.173,11.168 139.695,11.168Z" style="fill:white;fill-rule:nonzero;"/>
            </g>
            <g transform="matrix(1.1871,0,0,1.36071,0.232157,-0.0093017)">
                <path d="M143.025,24.131L143.025,12.719L145.363,12.719L145.363,14.432L145.733,14.432C145.949,13.969 146.335,13.537 146.891,13.136C147.446,12.735 148.272,12.534 149.368,12.534C150.232,12.534 150.996,12.727 151.659,13.113C152.338,13.498 152.871,14.046 153.256,14.756C153.642,15.451 153.835,16.292 153.835,17.279L153.835,24.131L151.451,24.131L151.451,17.464C151.451,16.477 151.204,15.752 150.71,15.289C150.216,14.81 149.537,14.571 148.673,14.571C147.685,14.571 146.891,14.895 146.289,15.543C145.702,16.191 145.409,17.133 145.409,18.367L145.409,24.131L143.025,24.131Z" style="fill:white;fill-rule:nonzero;"/>
            </g>
            <g transform="matrix(1.1871,0,0,1.36071,0.232157,-0.0093017)">
                <path d="M159.419,24.455C158.601,24.455 157.868,24.316 157.22,24.038C156.587,23.761 156.078,23.352 155.692,22.812C155.322,22.271 155.137,21.616 155.137,20.844C155.137,20.057 155.322,19.409 155.692,18.9C156.078,18.375 156.595,17.981 157.243,17.719C157.907,17.457 158.655,17.326 159.488,17.326L162.961,17.326L162.961,16.585C162.961,15.921 162.76,15.389 162.359,14.988C161.958,14.586 161.34,14.386 160.507,14.386C159.689,14.386 159.064,14.579 158.632,14.964C158.2,15.35 157.914,15.852 157.776,16.469L155.553,15.752C155.739,15.134 156.032,14.579 156.433,14.085C156.85,13.576 157.397,13.167 158.076,12.858C158.755,12.549 159.573,12.395 160.53,12.395C162.012,12.395 163.177,12.773 164.025,13.529C164.874,14.285 165.298,15.358 165.298,16.747L165.298,21.446C165.298,21.909 165.515,22.14 165.947,22.14L166.919,22.14L166.919,24.131L165.136,24.131C164.596,24.131 164.157,23.992 163.817,23.714C163.478,23.437 163.308,23.058 163.308,22.58L163.308,22.511L162.961,22.511C162.837,22.742 162.652,23.012 162.405,23.321C162.158,23.629 161.795,23.899 161.317,24.131C160.839,24.347 160.206,24.455 159.419,24.455ZM159.766,22.487C160.723,22.487 161.495,22.217 162.081,21.677C162.667,21.122 162.961,20.366 162.961,19.409L162.961,19.177L159.627,19.177C158.995,19.177 158.485,19.316 158.1,19.594C157.714,19.856 157.521,20.25 157.521,20.775C157.521,21.299 157.721,21.716 158.123,22.025C158.524,22.333 159.072,22.487 159.766,22.487Z" style="fill:white;fill-rule:nonzero;"/>
            </g>
            <g transform="matrix(1.1871,0,0,1.36071,0.232157,-0.0093017)">
                <path d="M168.311,24.131L168.311,12.719L170.649,12.719L170.649,14.062L171.019,14.062C171.205,13.583 171.498,13.236 171.899,13.02C172.316,12.789 172.825,12.673 173.427,12.673L174.792,12.673L174.792,14.826L173.334,14.826C172.563,14.826 171.93,15.042 171.436,15.474C170.942,15.89 170.695,16.539 170.695,17.418L170.695,24.131L168.311,24.131Z" style="fill:white;fill-rule:nonzero;"/>
            </g>
            <g transform="matrix(1.1871,0,0,1.36071,0.232157,-0.0093017)">
                <path d="M180.301,24.455C178.85,24.455 177.647,24.131 176.69,23.483C175.733,22.835 175.147,21.855 174.931,20.543L177.153,20.011C177.276,20.643 177.485,21.145 177.778,21.515C178.071,21.886 178.434,22.148 178.866,22.302C179.313,22.456 179.792,22.534 180.301,22.534C181.057,22.534 181.636,22.387 182.037,22.094C182.454,21.801 182.662,21.423 182.662,20.96C182.662,20.497 182.469,20.157 182.083,19.941C181.698,19.725 181.127,19.548 180.37,19.409L179.583,19.27C178.812,19.131 178.11,18.93 177.477,18.668C176.844,18.406 176.343,18.043 175.972,17.58C175.602,17.117 175.417,16.523 175.417,15.798C175.417,14.717 175.818,13.884 176.621,13.298C177.423,12.696 178.488,12.395 179.815,12.395C181.096,12.395 182.145,12.688 182.963,13.275C183.796,13.846 184.336,14.625 184.583,15.613L182.361,16.238C182.222,15.543 181.929,15.057 181.482,14.779C181.034,14.486 180.478,14.339 179.815,14.339C179.167,14.339 178.658,14.463 178.287,14.71C177.917,14.941 177.732,15.273 177.732,15.705C177.732,16.168 177.909,16.508 178.264,16.724C178.634,16.94 179.128,17.102 179.745,17.21L180.556,17.349C181.374,17.488 182.122,17.68 182.801,17.927C183.48,18.174 184.012,18.529 184.398,18.992C184.799,19.455 185,20.072 185,20.844C185,21.986 184.576,22.873 183.727,23.506C182.878,24.139 181.736,24.455 180.301,24.455Z" style="fill:white;fill-rule:nonzero;"/>
            </g>
        </g>
    </g>
    <defs>
        <linearGradient id="_Linear1" x1="0" y1="0" x2="1" y2="0" gradientUnits="userSpaceOnUse" gradientTransform="matrix(30.0833,-31.364,31.364,30.0833,-0.00109088,31.9928)"><stop offset="0" style="stop-color:rgb(122,90,248);stop-opacity:1"/><stop offset="1" style="stop-color:rgb(246,61,104);stop-opacity:1"/></linearGradient>
    </defs>
</svg>